<svg viewBox="0 0 700 440" xmlns="http://www.w3.org/2000/svg"
     style="font-family:-apple-system,system-ui,sans-serif;background:white;">
  <text x="350" y="22" text-anchor="middle" font-size="13" font-weight="600" fill="#222">
    C. elegans Connectome Hub Neurons — Top 15 by Weighted Degree
  </text>
  <text x="350" y="40" text-anchor="middle" font-size="10" fill="#666">
    Chemical (outgoing + incoming) and electrical synapse weights · White et al. 1986 · OpenWorm/c302
  </text>
  <text x="350" y="56" text-anchor="middle" font-size="10" fill="#c0392b">
    AVA (backward command) and AVB (forward command) are the top hubs — the working memory circuit
  </text>
  <text x="290" y="429" text-anchor="middle"
        font-size="10" fill="#555">Total weighted degree (synapse counts)</text>
  <line x1="80" y1="75" x2="80" y2="385" stroke="#ccc" stroke-width="1"/><line x1="80.0" y1="75" x2="80.0" y2="385" stroke="#eee" stroke-width="1"/><text x="80.0" y="401" text-anchor="middle" font-size="9" fill="#888">0</text><line x1="168.2" y1="75" x2="168.2" y2="385" stroke="#eee" stroke-width="1"/><text x="168.2" y="401" text-anchor="middle" font-size="9" fill="#888">300</text><line x1="256.3" y1="75" x2="256.3" y2="385" stroke="#eee" stroke-width="1"/><text x="256.3" y="401" text-anchor="middle" font-size="9" fill="#888">600</text><line x1="344.5" y1="75" x2="344.5" y2="385" stroke="#eee" stroke-width="1"/><text x="344.5" y="401" text-anchor="middle" font-size="9" fill="#888">900</text><line x1="432.7" y1="75" x2="432.7" y2="385" stroke="#eee" stroke-width="1"/><text x="432.7" y="401" text-anchor="middle" font-size="9" fill="#888">1200</text><rect x="80.0" y="75.0" width="83.2" height="14.9" fill="#c0392b" opacity="0.9" rx="1"/><rect x="163.2" y="75.0" width="199.3" height="14.9" fill="#c0392b" opacity="0.5" rx="1"/><rect x="362.4" y="75.0" width="137.6" height="14.9" fill="#c0392b" opacity="0.25" rx="1"/><text x="72" y="86.4" text-anchor="end" font-size="11" fill="#c0392b" font-weight="700">AVAR</text><text x="510" y="86.4" font-size="9.5" fill="#c0392b">Backward command</text><text x="505.0" y="86.4" font-size="9" fill="#c0392b" font-weight="600">1429</text><rect x="80.0" y="95.7" width="78.2" height="14.9" fill="#c0392b" opacity="0.9" rx="1"/><rect x="158.2" y="95.7" width="194.0" height="14.9" fill="#c0392b" opacity="0.5" rx="1"/><rect x="352.2" y="95.7" width="136.4" height="14.9" fill="#c0392b" opacity="0.25" rx="1"/><text x="72" y="107.1" text-anchor="end" font-size="11" fill="#c0392b" font-weight="700">AVAL</text><text x="510" y="107.1" font-size="9.5" fill="#c0392b">Backward command</text><text x="493.5" y="107.1" font-size="9" fill="#c0392b" font-weight="600">1390</text><rect x="80.0" y="116.3" width="132.8" height="14.9" fill="#e67e22" opacity="0.9" rx="1"/><rect x="212.8" y="116.3" width="124.6" height="14.9" fill="#e67e22" opacity="0.5" rx="1"/><rect x="337.5" y="116.3" width="4.1" height="14.9" fill="#e67e22" opacity="0.25" rx="1"/><text x="72" y="127.8" text-anchor="end" font-size="11" fill="#e67e22" font-weight="700">RIAR</text><text x="510" y="127.8" font-size="9.5" fill="#e67e22">Sensorimotor int.</text><text x="346.6" y="127.8" font-size="9" fill="#e67e22" font-weight="600">890</text><rect x="80.0" y="137.0" width="48.2" height="14.9" fill="#7f8c8d" opacity="0.9" rx="1"/><rect x="128.2" y="137.0" width="76.4" height="14.9" fill="#7f8c8d" opacity="0.5" rx="1"/><rect x="204.6" y="137.0" width="128.7" height="14.9" fill="#7f8c8d" opacity="0.25" rx="1"/><text x="72" y="148.4" text-anchor="end" font-size="11" fill="#7f8c8d" font-weight="700">PVCR</text><text x="510" y="148.4" font-size="9.5" fill="#7f8c8d">Touch int.</text><text x="338.4" y="148.4" font-size="9" fill="#7f8c8d" font-weight="600">862</text><rect x="80.0" y="157.7" width="117.6" height="14.9" fill="#e67e22" opacity="0.9" rx="1"/><rect x="197.6" y="157.7" width="127.6" height="14.9" fill="#e67e22" opacity="0.5" rx="1"/><rect x="325.1" y="157.7" width="4.7" height="14.9" fill="#e67e22" opacity="0.25" rx="1"/><text x="72" y="169.1" text-anchor="end" font-size="11" fill="#e67e22" font-weight="700">RIAL</text><text x="510" y="169.1" font-size="9.5" fill="#e67e22">Sensorimotor int.</text><text x="334.8" y="169.1" font-size="9" fill="#e67e22" font-weight="600">850</text><rect x="80.0" y="178.3" width="45.0" height="14.9" fill="#7f8c8d" opacity="0.9" rx="1"/><rect x="125.0" y="178.3" width="82.9" height="14.9" fill="#7f8c8d" opacity="0.5" rx="1"/><rect x="207.9" y="178.3" width="97.0" height="14.9" fill="#7f8c8d" opacity="0.25" rx="1"/><text x="72" y="189.8" text-anchor="end" font-size="11" fill="#7f8c8d" font-weight="700">PVCL</text><text x="510" y="189.8" font-size="9.5" fill="#7f8c8d">Touch int.</text><text x="309.8" y="189.8" font-size="9" fill="#7f8c8d" font-weight="600">765</text><rect x="80.0" y="199.0" width="18.8" height="14.9" fill="#1a5c8a" opacity="0.9" rx="1"/><rect x="98.8" y="199.0" width="99.3" height="14.9" fill="#1a5c8a" opacity="0.5" rx="1"/><rect x="198.2" y="199.0" width="79.4" height="14.9" fill="#1a5c8a" opacity="0.25" rx="1"/><text x="72" y="210.4" text-anchor="end" font-size="11" fill="#1a5c8a" font-weight="700">AVBL</text><text x="510" y="210.4" font-size="9.5" fill="#1a5c8a">Forward command</text><text x="282.5" y="210.4" font-size="9" fill="#1a5c8a" font-weight="600">672</text><rect x="80.0" y="219.7" width="16.8" height="14.9" fill="#1a5c8a" opacity="0.9" rx="1"/><rect x="96.8" y="219.7" width="98.5" height="14.9" fill="#1a5c8a" opacity="0.5" rx="1"/><rect x="195.2" y="219.7" width="81.7" height="14.9" fill="#1a5c8a" opacity="0.25" rx="1"/><text x="72" y="231.1" text-anchor="end" font-size="11" fill="#1a5c8a" font-weight="700">AVBR</text><text x="510" y="231.1" font-size="9.5" fill="#1a5c8a">Forward command</text><text x="281.9" y="231.1" font-size="9" fill="#1a5c8a" font-weight="600">670</text><rect x="80.0" y="240.3" width="19.4" height="14.9" fill="#7f8c8d" opacity="0.9" rx="1"/><rect x="99.4" y="240.3" width="14.1" height="14.9" fill="#7f8c8d" opacity="0.5" rx="1"/><rect x="113.5" y="240.3" width="142.8" height="14.9" fill="#7f8c8d" opacity="0.25" rx="1"/><text x="72" y="251.8" text-anchor="end" font-size="11" fill="#7f8c8d" font-weight="700">PVPL</text><text x="510" y="251.8" font-size="9.5" fill="#7f8c8d">Post. interneuron</text><text x="261.3" y="251.8" font-size="9" fill="#7f8c8d" font-weight="600">600</text><rect x="80.0" y="261.0" width="141.1" height="14.9" fill="#8e44ad" opacity="0.9" rx="1"/><rect x="221.1" y="261.0" width="13.5" height="14.9" fill="#8e44ad" opacity="0.5" rx="1"/><rect x="234.6" y="261.0" width="14.1" height="14.9" fill="#8e44ad" opacity="0.25" rx="1"/><text x="72" y="272.4" text-anchor="end" font-size="11" fill="#8e44ad" font-weight="700">SABD</text><text x="510" y="272.4" font-size="9.5" fill="#8e44ad">Motor neuron</text><text x="253.7" y="272.4" font-size="9" fill="#8e44ad" font-weight="600">574</text><rect x="80.0" y="281.7" width="106.4" height="14.9" fill="#8e44ad" opacity="0.9" rx="1"/><rect x="186.4" y="281.7" width="49.7" height="14.9" fill="#8e44ad" opacity="0.5" rx="1"/><rect x="236.1" y="281.7" width="11.8" height="14.9" fill="#8e44ad" opacity="0.25" rx="1"/><text x="72" y="293.1" text-anchor="end" font-size="11" fill="#8e44ad" font-weight="700">SMDVL</text><text x="510" y="293.1" font-size="9.5" fill="#8e44ad">Head motor</text><text x="252.8" y="293.1" font-size="9" fill="#8e44ad" font-weight="600">571</text><rect x="80.0" y="302.3" width="22.6" height="14.9" fill="#7f8c8d" opacity="0.9" rx="1"/><rect x="102.6" y="302.3" width="8.5" height="14.9" fill="#7f8c8d" opacity="0.5" rx="1"/><rect x="111.2" y="302.3" width="134.0" height="14.9" fill="#7f8c8d" opacity="0.25" rx="1"/><text x="72" y="313.8" text-anchor="end" font-size="11" fill="#7f8c8d" font-weight="700">PVPR</text><text x="510" y="313.8" font-size="9.5" fill="#7f8c8d">Post. interneuron</text><text x="250.2" y="313.8" font-size="9" fill="#7f8c8d" font-weight="600">562</text><rect x="80.0" y="323.0" width="100.5" height="14.9" fill="#8e44ad" opacity="0.9" rx="1"/><rect x="180.5" y="323.0" width="50.3" height="14.9" fill="#8e44ad" opacity="0.5" rx="1"/><rect x="230.8" y="323.0" width="11.8" height="14.9" fill="#8e44ad" opacity="0.25" rx="1"/><text x="72" y="334.4" text-anchor="end" font-size="11" fill="#8e44ad" font-weight="700">SMDVR</text><text x="510" y="334.4" font-size="9.5" fill="#8e44ad">Head motor</text><text x="247.5" y="334.4" font-size="9" fill="#8e44ad" font-weight="600">553</text><rect x="80.0" y="343.7" width="39.1" height="14.9" fill="#27ae60" opacity="0.9" rx="1"/><rect x="119.1" y="343.7" width="86.7" height="14.9" fill="#27ae60" opacity="0.5" rx="1"/><rect x="205.8" y="343.7" width="30.6" height="14.9" fill="#27ae60" opacity="0.25" rx="1"/><text x="72" y="355.1" text-anchor="end" font-size="11" fill="#27ae60" font-weight="700">AVER</text><text x="510" y="355.1" font-size="9.5" fill="#27ae60">Forward/rev int.</text><text x="241.4" y="355.1" font-size="9" fill="#27ae60" font-weight="600">532</text><rect x="80.0" y="364.3" width="73.2" height="14.9" fill="#16a085" opacity="0.9" rx="1"/><rect x="153.2" y="364.3" width="63.5" height="14.9" fill="#16a085" opacity="0.5" rx="1"/><rect x="216.7" y="364.3" width="18.8" height="14.9" fill="#16a085" opacity="0.25" rx="1"/><text x="72" y="375.8" text-anchor="end" font-size="11" fill="#16a085" font-weight="700">AIZL</text><text x="510" y="375.8" font-size="9.5" fill="#16a085">Interneuron</text><text x="240.5" y="375.8" font-size="9" fill="#16a085" font-weight="600">529</text><rect x="100" y="413" width="12" height="10" fill="#555" rx="1"/><text x="116" y="422" font-size="9" fill="#666">Dark = chem. outgoing</text><rect x="300" y="413" width="12" height="10" fill="#999" rx="1"/><text x="316" y="422" font-size="9" fill="#666">Medium = chem. incoming</text><rect x="500" y="413" width="12" height="10" fill="#bbb" rx="1"/><text x="516" y="422" font-size="9" fill="#666">Light = electrical (gap junctions)</text>
</svg>