<svg viewBox="0 0 640 500" xmlns="http://www.w3.org/2000/svg"
     style="font-family:-apple-system,system-ui,sans-serif;background:white;">
  <text x="320" y="22" text-anchor="middle" font-size="13" font-weight="600" fill="#222">
    Two Modes of Hub Connectivity: Chemical vs. Electrical Synapses
  </text>
  <text x="320" y="40" text-anchor="middle" font-size="10" fill="#666">
    Top 60 neurons by total degree · White et al. 1986 · OpenWorm/c302
  </text>
  <text x="320" y="56" text-anchor="middle" font-size="10" fill="#444">
    AVA/AVB dominate chemical synapses; PVCR/PVP combine strong electrical coupling with moderate chemical
  </text>
  <line x1="70" y1="75" x2="70" y2="435" stroke="#ccc" stroke-width="1"/><line x1="70" y1="435" x2="600" y2="435" stroke="#ccc" stroke-width="1"/><line x1="70.0" y1="75" x2="70.0" y2="435" stroke="#eee" stroke-width="1"/><text x="70.0" y="451" text-anchor="middle" font-size="9" fill="#888">0</text><line x1="220.4" y1="75" x2="220.4" y2="435" stroke="#eee" stroke-width="1"/><text x="220.4" y="451" text-anchor="middle" font-size="9" fill="#888">300</text><line x1="370.8" y1="75" x2="370.8" y2="435" stroke="#eee" stroke-width="1"/><text x="370.8" y="451" text-anchor="middle" font-size="9" fill="#888">600</text><line x1="521.2" y1="75" x2="521.2" y2="435" stroke="#eee" stroke-width="1"/><text x="521.2" y="451" text-anchor="middle" font-size="9" fill="#888">900</text><line x1="70" y1="435.0" x2="600" y2="435.0" stroke="#eee" stroke-width="1"/><text x="62" y="439.0" text-anchor="end" font-size="9" fill="#888">0</text><line x1="70" y1="334.0" x2="600" y2="334.0" stroke="#eee" stroke-width="1"/><text x="62" y="338.0" text-anchor="end" font-size="9" fill="#888">150</text><line x1="70" y1="233.0" x2="600" y2="233.0" stroke="#eee" stroke-width="1"/><text x="62" y="237.0" text-anchor="end" font-size="9" fill="#888">300</text><line x1="70" y1="132.0" x2="600" y2="132.0" stroke="#eee" stroke-width="1"/><text x="62" y="136.0" text-anchor="end" font-size="9" fill="#888">450</text><line x1="70" y1="31.0" x2="600" y2="31.0" stroke="#eee" stroke-width="1"/><text x="62" y="35.0" text-anchor="end" font-size="9" fill="#888">600</text><text x="335" y="469" text-anchor="middle" font-size="10" fill="#555">Total chemical synapse weight</text><text transform="rotate(-90,18,255)" x="18" y="255" text-anchor="middle" font-size="10" fill="#555">Electrical (gap junction) weight</text><circle cx="551.8" cy="119.8" r="7" fill="#c0392b" opacity="0.9"/><circle cx="534.3" cy="122.5" r="7" fill="#c0392b" opacity="0.9"/><circle cx="509.2" cy="425.6" r="7" fill="#e67e22" opacity="0.9"/><circle cx="282.6" cy="140.1" r="4" fill="#7f8c8d" opacity="0.4"/><circle cx="488.1" cy="424.2" r="7" fill="#e67e22" opacity="0.9"/><circle cx="288.1" cy="212.8" r="4" fill="#7f8c8d" opacity="0.4"/><circle cx="271.6" cy="253.2" r="7" fill="#1a5c8a" opacity="0.9"/><circle cx="266.5" cy="247.8" r="7" fill="#1a5c8a" opacity="0.9"/><circle cx="127.2" cy="107.7" r="4" fill="#7f8c8d" opacity="0.4"/><circle cx="333.7" cy="402.7" r="7" fill="#8e44ad" opacity="0.9"/><circle cx="336.2" cy="408.1" r="7" fill="#8e44ad" opacity="0.9"/><circle cx="123.1" cy="127.9" r="4" fill="#7f8c8d" opacity="0.4"/><circle cx="327.2" cy="408.1" r="7" fill="#8e44ad" opacity="0.9"/><circle cx="284.6" cy="365.0" r="4" fill="#27ae60" opacity="0.4"/><circle cx="303.1" cy="391.9" r="4" fill="#16a085" opacity="0.4"/><circle cx="283.1" cy="382.5" r="4" fill="#bdc3c7" opacity="0.4"/><circle cx="283.6" cy="383.8" r="4" fill="#bdc3c7" opacity="0.4"/><circle cx="281.6" cy="382.5" r="4" fill="#bdc3c7" opacity="0.4"/><circle cx="267.0" cy="365.0" r="4" fill="#bdc3c7" opacity="0.4"/><circle cx="276.1" cy="379.8" r="4" fill="#bdc3c7" opacity="0.4"/><circle cx="161.8" cy="227.6" r="4" fill="#bdc3c7" opacity="0.4"/><circle cx="261.0" cy="363.6" r="4" fill="#bdc3c7" opacity="0.4"/><circle cx="287.1" cy="401.3" r="4" fill="#bdc3c7" opacity="0.4"/><circle cx="278.1" cy="390.6" r="4" fill="#bdc3c7" opacity="0.4"/><circle cx="207.4" cy="307.7" r="4" fill="#bdc3c7" opacity="0.4"/><circle cx="274.1" cy="400.0" r="4" fill="#bdc3c7" opacity="0.4"/><circle cx="267.0" cy="390.6" r="4" fill="#bdc3c7" opacity="0.4"/><circle cx="279.6" cy="417.5" r="4" fill="#bdc3c7" opacity="0.4"/><circle cx="144.2" cy="237.0" r="4" fill="#bdc3c7" opacity="0.4"/><circle cx="268.5" cy="408.1" r="4" fill="#bdc3c7" opacity="0.4"/><circle cx="169.3" cy="278.8" r="4" fill="#bdc3c7" opacity="0.4"/><circle cx="269.5" cy="416.1" r="4" fill="#bdc3c7" opacity="0.4"/><circle cx="167.8" cy="281.5" r="4" fill="#bdc3c7" opacity="0.4"/><circle cx="220.4" cy="362.3" r="4" fill="#bdc3c7" opacity="0.4"/><circle cx="213.9" cy="355.5" r="4" fill="#bdc3c7" opacity="0.4"/><circle cx="257.0" cy="417.5" r="4" fill="#bdc3c7" opacity="0.4"/><circle cx="258.5" cy="426.9" r="4" fill="#bdc3c7" opacity="0.4"/><circle cx="237.0" cy="401.3" r="4" fill="#bdc3c7" opacity="0.4"/><circle cx="138.2" cy="281.5" r="4" fill="#bdc3c7" opacity="0.4"/><circle cx="123.1" cy="265.3" r="4" fill="#bdc3c7" opacity="0.4"/><circle cx="135.7" cy="285.5" r="4" fill="#bdc3c7" opacity="0.4"/><circle cx="165.3" cy="325.9" r="4" fill="#bdc3c7" opacity="0.4"/><circle cx="128.7" cy="277.4" r="4" fill="#bdc3c7" opacity="0.4"/><circle cx="236.5" cy="422.9" r="4" fill="#bdc3c7" opacity="0.4"/><circle cx="226.4" cy="418.8" r="4" fill="#bdc3c7" opacity="0.4"/><circle cx="218.4" cy="408.1" r="4" fill="#bdc3c7" opacity="0.4"/><circle cx="112.1" cy="268.0" r="4" fill="#bdc3c7" opacity="0.4"/><circle cx="163.3" cy="340.7" r="4" fill="#bdc3c7" opacity="0.4"/><circle cx="207.9" cy="401.3" r="4" fill="#bdc3c7" opacity="0.4"/><circle cx="220.9" cy="418.8" r="4" fill="#bdc3c7" opacity="0.4"/><circle cx="216.9" cy="414.8" r="4" fill="#bdc3c7" opacity="0.4"/><circle cx="106.1" cy="269.3" r="4" fill="#bdc3c7" opacity="0.4"/><circle cx="134.2" cy="307.1" r="4" fill="#bdc3c7" opacity="0.4"/><circle cx="129.2" cy="303.0" r="4" fill="#bdc3c7" opacity="0.4"/><circle cx="211.9" cy="414.8" r="4" fill="#bdc3c7" opacity="0.4"/><circle cx="212.9" cy="417.5" r="4" fill="#bdc3c7" opacity="0.4"/><circle cx="210.4" cy="420.2" r="4" fill="#bdc3c7" opacity="0.4"/><circle cx="203.4" cy="413.5" r="4" fill="#bdc3c7" opacity="0.4"/><circle cx="182.3" cy="385.2" r="4" fill="#bdc3c7" opacity="0.4"/><circle cx="185.3" cy="390.6" r="4" fill="#bdc3c7" opacity="0.4"/><line x1="551.8" y1="119.8" x2="560.0" y2="100.0" stroke="#c0392b" stroke-width="1" opacity="0.5"/><text x="560" y="100" font-size="10" fill="#c0392b" font-weight="700" text-anchor="start">AVAR</text><line x1="534.3" y1="122.5" x2="520.0" y2="145.0" stroke="#c0392b" stroke-width="1" opacity="0.5"/><text x="520" y="145" font-size="10" fill="#c0392b" font-weight="700" text-anchor="end">AVAL</text><line x1="509.2" y1="425.6" x2="520.0" y2="400.0" stroke="#e67e22" stroke-width="1" opacity="0.5"/><text x="520" y="400" font-size="10" fill="#e67e22" font-weight="700" text-anchor="start">RIAR</text><line x1="488.1" y1="424.2" x2="470.0" y2="445.0" stroke="#e67e22" stroke-width="1" opacity="0.5"/><text x="470" y="445" font-size="10" fill="#e67e22" font-weight="700" text-anchor="end">RIAL</text><line x1="266.5" y1="247.8" x2="245.0" y2="232.0" stroke="#1a5c8a" stroke-width="1" opacity="0.5"/><text x="245" y="232" font-size="10" fill="#1a5c8a" font-weight="700" text-anchor="end">AVBR</text><line x1="271.6" y1="253.2" x2="245.0" y2="268.0" stroke="#1a5c8a" stroke-width="1" opacity="0.5"/><text x="245" y="268" font-size="10" fill="#1a5c8a" font-weight="700" text-anchor="end">AVBL</text><line x1="333.7" y1="402.7" x2="315.0" y2="385.0" stroke="#8e44ad" stroke-width="1" opacity="0.5"/><text x="315" y="385" font-size="10" fill="#8e44ad" font-weight="700" text-anchor="end">SABD</text><line x1="336.2" y1="408.1" x2="350.0" y2="425.0" stroke="#8e44ad" stroke-width="1" opacity="0.5"/><text x="350" y="425" font-size="10" fill="#8e44ad" font-weight="700" text-anchor="start">SMDVL</text><line x1="327.2" y1="408.1" x2="295.0" y2="425.0" stroke="#8e44ad" stroke-width="1" opacity="0.5"/><text x="295" y="425" font-size="10" fill="#8e44ad" font-weight="700" text-anchor="end">SMDVR</text><circle cx="367.5" cy="92" r="5" fill="#c0392b" opacity="0.85"/><text x="377.5" y="97" font-size="9.5" fill="#c0392b" font-weight="600">AVA — Backward command</text><circle cx="367.5" cy="112" r="5" fill="#1a5c8a" opacity="0.85"/><text x="377.5" y="117" font-size="9.5" fill="#1a5c8a" font-weight="600">AVB — Forward command</text><circle cx="367.5" cy="132" r="5" fill="#e67e22" opacity="0.85"/><text x="377.5" y="137" font-size="9.5" fill="#e67e22" font-weight="600">RIA — Sensorimotor</text><circle cx="367.5" cy="152" r="5" fill="#8e44ad" opacity="0.85"/><text x="377.5" y="157" font-size="9.5" fill="#8e44ad" font-weight="600">SMD/SABD — Motor</text><circle cx="367.5" cy="172" r="5" fill="#bdc3c7" opacity="0.85"/><text x="377.5" y="177" font-size="9.5" fill="#bdc3c7" font-weight="600">Other top neurons</text>
</svg>